<svg width="469" height="469" viewBox="0 0 469 469" fill="none" xmlns="http://www.w3.org/2000/svg">
<path d="M409.398 170.501L245.248 335.139C243.293 337.094 241.176 338.475 238.897 339.282C236.617 340.103 234.174 340.513 231.569 340.513C228.963 340.513 226.52 340.103 224.24 339.282C221.961 338.475 219.843 337.094 217.889 335.139L53.2508 170.501C48.6911 165.941 46.4112 160.242 46.4112 153.402C46.4112 146.562 48.8539 140.7 53.7393 135.814C58.6247 130.929 64.3244 128.486 70.8383 128.486C77.3522 128.486 83.0518 130.929 87.9372 135.814L231.569 279.446L375.2 135.814C379.759 131.255 385.374 128.975 392.045 128.975C398.728 128.975 404.512 131.418 409.398 136.303C414.283 141.188 416.726 146.888 416.726 153.402C416.726 159.916 414.283 165.616 409.398 170.501Z" fill="#1E212B"/>
</svg>
