<svg width="469" height="469" viewBox="0 0 469 469" fill="none" xmlns="http://www.w3.org/2000/svg">
<path d="M59.6023 298.499L223.752 133.861C225.707 131.906 227.824 130.525 230.103 129.718C232.383 128.897 234.826 128.487 237.431 128.487C240.037 128.487 242.48 128.897 244.76 129.718C247.039 130.525 249.157 131.906 251.111 133.861L415.749 298.499C420.309 303.059 422.589 308.758 422.589 315.598C422.589 322.438 420.146 328.3 415.261 333.186C410.375 338.071 404.676 340.514 398.162 340.514C391.648 340.514 385.948 338.071 381.063 333.186L237.431 189.554L93.8002 333.186C89.2405 337.745 83.6255 340.025 76.9553 340.025C70.2721 340.025 64.4877 337.582 59.6023 332.697C54.7169 327.812 52.2742 322.112 52.2742 315.598C52.2742 309.084 54.7169 303.384 59.6023 298.499Z" fill="#1E212B"/>
</svg>
