<svg width="394" height="393" viewBox="0 0 394 393" fill="none" xmlns="http://www.w3.org/2000/svg">
<path d="M133.475 152.125L197.01 215.66L260.545 152.125C262.061 150.609 263.861 149.406 265.841 148.586C267.822 147.765 269.945 147.343 272.089 147.343C274.233 147.343 276.356 147.765 278.337 148.586C280.318 149.406 282.118 150.609 283.634 152.125C285.15 153.641 286.352 155.44 287.173 157.421C287.993 159.402 288.415 161.525 288.415 163.669C288.415 165.813 287.993 167.936 287.173 169.917C286.352 171.898 285.15 173.697 283.634 175.213L208.472 250.375C206.957 251.893 205.158 253.097 203.177 253.919C201.196 254.74 199.073 255.163 196.928 255.163C194.783 255.163 192.66 254.74 190.679 253.919C188.698 253.097 186.899 251.893 185.384 250.375L110.222 175.213C108.704 173.698 107.5 171.899 106.678 169.918C105.857 167.937 105.434 165.814 105.434 163.669C105.434 161.524 105.857 159.401 106.678 157.42C107.5 155.439 108.704 153.64 110.222 152.125C116.609 145.902 127.089 145.738 133.475 152.125V152.125Z" fill="#1E212B"/>
</svg>
