<svg width="234" height="211" viewBox="0 0 234 211" fill="none" xmlns="http://www.w3.org/2000/svg">
<path d="M32.499 119.656V153.618C32.499 162.442 36.9701 170.66 44.1238 174.891L100.012 207.887C106.719 211.875 114.767 211.875 121.473 207.887L177.361 174.891C184.515 170.66 188.986 162.442 188.986 153.618V119.656L121.473 159.541C114.767 163.529 106.719 163.529 100.012 159.541L32.499 119.656ZM100.012 2.90074L5.78443 58.4983C-1.92814 63.0911 -1.92814 75.1776 5.78443 79.7704L100.012 135.368C106.719 139.357 114.767 139.357 121.473 135.368L211.341 82.3086V153.739C211.341 160.387 216.371 165.826 222.519 165.826C228.667 165.826 233.697 160.387 233.697 153.739V76.2654C233.697 71.7934 231.461 67.8049 227.884 65.6293L121.473 2.90074C118.171 0.996221 114.485 0 110.743 0C107 0 103.314 0.996221 100.012 2.90074Z" fill="#1E212B"/>
</svg>
