<svg width="36" height="35" viewBox="0 0 36 35" fill="none" xmlns="http://www.w3.org/2000/svg">
<path fill-rule="evenodd" clip-rule="evenodd" d="M18 0.500105C13.8454 0.500664 9.82642 1.97933 6.66212 4.6716C3.49782 7.36386 1.39458 11.0941 0.72863 15.195C0.0626807 19.296 0.877467 23.5 3.02724 27.0553C5.17701 30.6105 8.52152 33.2849 12.4625 34.6001C13.3375 34.7626 13.7125 34.2251 13.7125 33.7626V30.7876C8.85 31.8376 7.825 28.4376 7.825 28.4376C7.48306 27.3661 6.7634 26.4555 5.8 25.8751C4.2125 24.8001 5.925 24.8126 5.925 24.8126C6.47951 24.8909 7.00878 25.095 7.47239 25.4091C7.936 25.7232 8.32169 26.1391 8.6 26.6251C9.08418 27.4935 9.89342 28.1341 10.8498 28.406C11.8062 28.6779 12.8314 28.5589 13.7 28.0751C13.7706 27.1882 14.1616 26.3573 14.8 25.7376C10.925 25.2876 6.8375 23.7876 6.8375 17.0876C6.80916 15.3475 7.45403 13.6636 8.6375 12.3876C8.10183 10.8803 8.16446 9.22507 8.8125 7.7626C8.8125 7.7626 10.275 7.2876 13.625 9.5501C16.4893 8.76879 19.5107 8.76879 22.375 9.5501C25.7125 7.2876 27.175 7.7626 27.175 7.7626C27.823 9.22507 27.8857 10.8803 27.35 12.3876C28.5335 13.6636 29.1783 15.3475 29.15 17.0876C29.15 23.8126 25.0625 25.2876 21.1625 25.7251C21.5803 26.1486 21.9024 26.6566 22.1073 27.2151C22.3121 27.7736 22.3949 28.3695 22.35 28.9626V33.7626C22.35 34.3376 22.6625 34.7751 23.6 34.6001C27.5462 33.2833 30.8941 30.6037 33.0436 27.0419C35.193 23.4802 36.0033 19.2692 35.3291 15.1641C34.655 11.059 32.5405 7.32833 29.3648 4.64107C26.1892 1.95381 22.1601 0.485733 18 0.500105V0.500105Z" fill="white"/>
</svg>
