<svg width="548" height="247" viewBox="0 0 548 247" fill="none" xmlns="http://www.w3.org/2000/svg">
<path d="M175.985 157.891C166.877 143.886 152.503 134.644 138.967 125.352C123.443 114.99 107.237 105.688 90.4597 97.5083C82.3751 93.5163 74.039 90.0444 66.0383 85.8512C59.3304 82.479 53.1214 78.1946 47.588 73.1203C39.9899 65.9751 34.2535 55.7938 33.9013 46.6358C33.4222 39.1725 35.7426 31.799 40.4092 25.955L41.1472 25.1499L41.2646 25.0324L42.3549 24.0594C55.5049 13.0731 82.241 7.55498 104.817 13.7442C133.432 21.594 159.766 44.3044 168.303 73.1707C167.179 44.7908 150.926 15.4216 123.301 5.45845C105.384 -1.36211 85.6402 -1.67677 67.5143 4.56944C54.3811 9.03105 42.9922 17.7864 34.069 28.2862C20.3152 44.1031 18.336 62.0333 31.6369 78.8734C37.9939 86.9747 46.7326 92.7279 55.8403 97.4076C62.2812 100.762 68.94 103.63 75.4815 106.75C92.3957 114.809 108.747 123.999 124.425 134.258C135.797 141.906 147.421 149.471 157.048 159.3C177.897 180.4 172.53 202.44 161.309 214.483C150.222 225.754 119.292 239.055 83.3312 233.353C65.8202 230.753 45.0889 221.494 31.8718 206.935C22.3128 196.372 15.0431 183.946 10.5198 170.437C6.30974 157.706 4.63246 143.902 8.70829 130.3C8.90957 129.595 9.14437 128.907 9.39597 128.22C4.94747 137.021 2.10735 146.547 1.00948 156.348C-5.19652 214.886 46.2965 250.645 100.775 245.496C125.515 243.165 147.287 233.755 164.512 215.657C180.631 199.169 189.269 178.958 175.985 157.891Z" fill="#1E212B"/>
<path d="M261.5 221.704C256.233 221.704 251.333 220.837 246.8 219.104C242.333 217.304 238.433 214.804 235.1 211.604C231.833 208.337 229.267 204.57 227.4 200.304C225.6 195.97 224.7 191.237 224.7 186.104C224.7 180.97 225.6 176.27 227.4 172.004C229.267 167.67 231.833 163.904 235.1 160.704C238.433 157.437 242.333 154.937 246.8 153.204C251.267 151.404 256.167 150.504 261.5 150.504C266.767 150.504 271.633 151.404 276.1 153.204C280.567 154.937 284.433 157.404 287.7 160.604C291.033 163.804 293.6 167.57 295.4 171.904C297.267 176.237 298.2 180.97 298.2 186.104C298.2 191.237 297.267 195.97 295.4 200.304C293.6 204.637 291.033 208.404 287.7 211.604C284.433 214.804 280.567 217.304 276.1 219.104C271.633 220.837 266.767 221.704 261.5 221.704ZM261.5 215.104C265.7 215.104 269.567 214.404 273.1 213.004C276.7 211.537 279.8 209.504 282.4 206.904C285.067 204.237 287.133 201.17 288.6 197.704C290.067 194.17 290.8 190.304 290.8 186.104C290.8 181.904 290.067 178.07 288.6 174.604C287.133 171.07 285.067 168.004 282.4 165.404C279.8 162.737 276.7 160.704 273.1 159.304C269.567 157.837 265.7 157.104 261.5 157.104C257.3 157.104 253.4 157.837 249.8 159.304C246.2 160.704 243.067 162.737 240.4 165.404C237.8 168.004 235.733 171.07 234.2 174.604C232.733 178.07 232 181.904 232 186.104C232 190.237 232.733 194.07 234.2 197.604C235.733 201.137 237.8 204.237 240.4 206.904C243.067 209.504 246.2 211.537 249.8 213.004C253.4 214.404 257.3 215.104 261.5 215.104ZM347.559 185.004H384.559V191.404H347.559V185.004ZM348.359 221.104H340.959V151.104H388.959V157.504H348.359V221.104ZM430.412 221.104V151.104H437.812V221.104H430.412ZM475.559 221.104L507.559 151.104H514.859L546.859 221.104H539.059L509.659 155.404H512.659L483.259 221.104H475.559ZM488.159 202.404L490.359 196.404H531.059L533.259 202.404H488.159Z" fill="#1E212B"/>
</svg>
