<svg width="222" height="239" viewBox="0 0 222 239" fill="none" xmlns="http://www.w3.org/2000/svg">
<path d="M221.414 107.264V219.129C221.406 222.621 220.503 226.047 218.798 229.047C217.094 232.047 214.652 234.511 211.727 236.181C209.046 237.732 206.025 238.523 202.963 238.479H147.61C145.163 238.479 142.816 237.459 141.086 235.645C139.356 233.831 138.384 231.37 138.384 228.804V170.755C138.384 168.189 137.412 165.728 135.682 163.914C133.952 162.099 131.605 161.08 129.158 161.08H92.2561C89.8093 161.08 87.4627 162.099 85.7326 163.914C84.0025 165.728 83.0305 168.189 83.0305 170.755V228.804C83.0305 231.37 82.0585 233.831 80.3284 235.645C78.5982 237.459 76.2517 238.479 73.8049 238.479H18.4514C15.8339 238.489 13.2447 237.912 10.8578 236.785C8.47083 235.659 6.34153 234.009 4.61302 231.948C1.6135 228.232 -0.0222686 223.514 0.00022901 218.645V107.264C0.00104254 104.579 0.534606 101.924 1.56699 99.4669C2.59937 97.0101 4.10797 94.8055 5.99686 92.9933L98.2527 5.07314C101.654 1.80981 106.097 0 110.707 0C115.317 0 119.76 1.80981 123.162 5.07314L215.418 92.9933C217.307 94.8055 218.815 97.0101 219.848 99.4669C220.88 101.924 221.413 104.579 221.414 107.264Z" fill="#1E212B"/>
</svg>
