<svg width="222" height="240" viewBox="0 0 222 240" fill="none" xmlns="http://www.w3.org/2000/svg">
<path d="M18.4962 240C18.4962 240 0 240 0 220C0 200 18.4962 140 110.977 140C203.458 140 221.955 200 221.955 220C221.955 240 203.458 240 203.458 240H18.4962ZM110.977 120C125.694 120 139.808 113.679 150.214 102.426C160.62 91.1742 166.466 75.913 166.466 60C166.466 44.087 160.62 28.8258 150.214 17.5736C139.808 6.32141 125.694 0 110.977 0C96.2608 0 82.147 6.32141 71.7409 17.5736C61.3348 28.8258 55.4886 44.087 55.4886 60C55.4886 75.913 61.3348 91.1742 71.7409 102.426C82.147 113.679 96.2608 120 110.977 120Z" fill="#1E212B"/>
</svg>
