<svg width="183" height="108" viewBox="0 0 183 108" fill="none" xmlns="http://www.w3.org/2000/svg">
<path d="M28.0413 4.78184L91.5763 68.3168L155.111 4.78184C156.627 3.26581 158.427 2.06324 160.408 1.24277C162.389 0.422301 164.512 1.5974e-08 166.656 0C168.8 -1.59739e-08 170.923 0.422301 172.903 1.24277C174.884 2.06324 176.684 3.26581 178.2 4.78184C179.716 6.29787 180.919 8.09766 181.739 10.0784C182.56 12.0592 182.982 14.1822 182.982 16.3262C182.982 18.4702 182.56 20.5932 181.739 22.574C180.919 24.5548 179.716 26.3546 178.2 27.8706L103.039 103.032C101.524 104.55 99.7244 105.754 97.7435 106.576C95.7626 107.398 93.639 107.821 91.4944 107.821C89.3498 107.821 87.2262 107.398 85.2453 106.576C83.2644 105.754 81.4649 104.55 79.95 103.032L4.78877 27.8706C3.27075 26.3557 2.0664 24.5562 1.24468 22.5753C0.422962 20.5944 0 18.4708 0 16.3262C0 14.1816 0.422962 12.0581 1.24468 10.0771C2.0664 8.09618 3.27075 6.29675 4.78877 4.78184C11.175 -1.44066 21.655 -1.60441 28.0413 4.78184Z" fill="#1E212B"/>
</svg>
