<svg width="170" height="169" viewBox="0 0 170 169" fill="none" xmlns="http://www.w3.org/2000/svg">
<path d="M165.5 148.5C166.619 149.615 167.506 150.94 168.112 152.398C168.718 153.857 169.029 155.421 169.029 157C169.029 158.579 168.718 160.143 168.112 161.602C167.506 163.06 166.619 164.385 165.5 165.5C163.236 167.735 160.182 168.988 157 168.988C153.818 168.988 150.764 167.735 148.5 165.5L85 102L21.5 165.5C19.2355 167.735 16.1818 168.988 13 168.988C9.81822 168.988 6.76448 167.735 4.5 165.5C3.38128 164.385 2.49364 163.06 1.88797 161.602C1.28231 160.143 0.970535 158.579 0.970535 157C0.970535 155.421 1.28231 153.857 1.88797 152.398C2.49364 150.94 3.38128 149.615 4.5 148.5L68 85L4.5 21.5C2.24566 19.2457 0.979183 16.1881 0.979183 13C0.979183 11.4214 1.29011 9.85827 1.89421 8.39984C2.49832 6.94141 3.38376 5.61624 4.5 4.5C5.61624 3.38377 6.9414 2.49832 8.39983 1.89422C9.85827 1.29012 11.4214 0.979187 13 0.979187C16.1881 0.979187 19.2457 2.24566 21.5 4.5L85 68L148.5 4.5C150.754 2.24566 153.812 0.979187 157 0.979187C160.188 0.979187 163.246 2.24566 165.5 4.5C167.754 6.75434 169.021 9.81189 169.021 13C169.021 16.1881 167.754 19.2457 165.5 21.5L102 85L165.5 148.5Z" fill="#1E212B"/>
</svg>
